<svg width="173" height="36" viewBox="0 0 173 36" fill="none" xmlns="http://www.w3.org/2000/svg">
<g clip-path="url(#clip0_27_9)">
<path fill-rule="evenodd" clip-rule="evenodd" d="M28.1588 18C28.1588 25.0877 22.346 30.8333 15.1754 30.8333C8.00488 30.8333 2.192 25.0877 2.192 18C2.192 10.9123 8.00488 5.16666 15.1754 5.16666C22.346 5.16666 28.1588 10.9123 28.1588 18ZM30.3509 18C30.3509 26.2843 23.5566 33 15.1754 33C6.79428 33 0 26.2843 0 18C0 9.71573 6.79428 3 15.1754 3C23.5566 3 30.3509 9.71573 30.3509 18ZM23.5481 11.2759C23.5481 12.1329 22.8453 12.8276 21.9783 12.8276C21.1113 12.8276 20.4084 12.1329 20.4084 11.2759C20.4084 10.4189 21.1113 9.72418 21.9783 9.72418C22.8453 9.72418 23.5481 10.4189 23.5481 11.2759ZM10.6106 19.209C11.2861 21.7009 13.8774 23.1797 16.3985 22.512C18.9195 21.8443 20.4156 19.2829 19.7401 16.791C19.0646 14.2991 16.4732 12.8203 13.9522 13.488C11.4312 14.1557 9.93501 16.7171 10.6106 19.209ZM8.49322 19.7698C9.48206 23.4175 13.2754 25.5823 16.9657 24.6049C20.6562 23.6274 22.8462 19.878 21.8574 16.2302C20.8686 12.5825 17.0753 10.4177 13.3848 11.3952C9.69443 12.3726 7.50438 16.122 8.49322 19.7698Z" fill="url(#paint0_linear_27_9)"/>
<path d="M44.1419 8.63636V29H40.453V8.63636H44.1419ZM51.5769 20.0511V29H47.9775V13.7273H51.4178V16.3224H51.5968C51.9481 15.4673 52.5082 14.7879 53.2772 14.2841C54.0528 13.7803 55.0106 13.5284 56.1508 13.5284C57.2047 13.5284 58.1228 13.7538 58.905 14.2045C59.6939 14.6553 60.3037 15.3082 60.7346 16.1634C61.1721 17.0185 61.3875 18.0559 61.3809 19.2756V29H57.7814V19.8324C57.7814 18.8116 57.5163 18.0128 56.986 17.4361C56.4623 16.8594 55.7365 16.571 54.8084 16.571C54.1787 16.571 53.6186 16.7102 53.128 16.9886C52.6441 17.2604 52.263 17.6548 51.9846 18.1719C51.7128 18.6889 51.5769 19.3153 51.5769 20.0511ZM77.111 17.7642L73.8297 18.1222C73.7369 17.7907 73.5745 17.4792 73.3425 17.1875C73.1171 16.8958 72.8122 16.6605 72.4278 16.4815C72.0433 16.3026 71.5726 16.2131 71.0158 16.2131C70.2668 16.2131 69.637 16.3755 69.1266 16.7003C68.6228 17.0251 68.3742 17.446 68.3809 17.9631C68.3742 18.4072 68.5367 18.7685 68.8681 19.0469C69.2062 19.3253 69.763 19.554 70.5385 19.733L73.1437 20.2898C74.5887 20.6013 75.6626 21.0952 76.3653 21.7713C77.0745 22.4474 77.4325 23.3324 77.4391 24.4261C77.4325 25.3873 77.1508 26.2358 76.5939 26.9716C76.0438 27.7008 75.2781 28.2708 74.2971 28.6818C73.316 29.0928 72.1891 29.2983 70.9164 29.2983C69.0471 29.2983 67.5423 28.9072 66.4022 28.125C65.262 27.3362 64.5826 26.2391 64.3638 24.8338L67.8738 24.4957C68.0329 25.1851 68.3709 25.7055 68.888 26.0568C69.405 26.4081 70.0778 26.5838 70.9064 26.5838C71.7616 26.5838 72.4476 26.4081 72.9647 26.0568C73.4884 25.7055 73.7502 25.2713 73.7502 24.7543C73.7502 24.3168 73.5812 23.9555 73.2431 23.6705C72.9117 23.3854 72.3946 23.1667 71.692 23.0142L69.0868 22.4673C67.6219 22.1624 66.5381 21.6487 65.8354 20.9261C65.1328 20.197 64.7848 19.2756 64.7914 18.1619C64.7848 17.2206 65.04 16.4053 65.557 15.7159C66.0807 15.0199 66.8065 14.483 67.7346 14.1051C68.6692 13.7206 69.7464 13.5284 70.9661 13.5284C72.7559 13.5284 74.1645 13.9096 75.192 14.6719C76.226 15.4342 76.8657 16.465 77.111 17.7642ZM88.0336 13.7273V16.5114H79.2537V13.7273H88.0336ZM81.4214 10.0682H85.0208V24.4062C85.0208 24.8902 85.0937 25.2614 85.2395 25.5199C85.392 25.7718 85.5909 25.9441 85.8361 26.0369C86.0814 26.1297 86.3532 26.1761 86.6515 26.1761C86.8769 26.1761 87.0823 26.1596 87.268 26.1264C87.4602 26.0933 87.606 26.0634 87.7055 26.0369L88.312 28.8509C88.1198 28.9171 87.8447 28.9901 87.4867 29.0696C87.1354 29.1491 86.7045 29.1955 86.1941 29.2088C85.2926 29.2353 84.4805 29.0994 83.758 28.8011C83.0355 28.4962 82.4621 28.0256 82.0378 27.3892C81.6202 26.7528 81.4147 25.9574 81.4214 25.0028V10.0682ZM95.4388 29.3082C94.471 29.3082 93.5993 29.1359 92.8237 28.7912C92.0548 28.4399 91.4449 27.9228 90.9942 27.2401C90.55 26.5573 90.328 25.7154 90.328 24.7145C90.328 23.8527 90.4871 23.1402 90.8052 22.5767C91.1234 22.0133 91.5576 21.5625 92.1078 21.2244C92.658 20.8864 93.2778 20.6312 93.9672 20.4588C94.6632 20.2798 95.3824 20.1506 96.1248 20.071C97.0197 19.9782 97.7456 19.8954 98.3024 19.8224C98.8592 19.7429 99.2636 19.6236 99.5155 19.4645C99.774 19.2988 99.9033 19.0436 99.9033 18.6989V18.6392C99.9033 17.8902 99.6812 17.3101 99.2371 16.8991C98.7929 16.4882 98.1532 16.2827 97.318 16.2827C96.4364 16.2827 95.7371 16.4749 95.22 16.8594C94.7096 17.2438 94.3649 17.6979 94.1859 18.2216L90.8251 17.7443C91.0903 16.8163 91.5278 16.0407 92.1376 15.4176C92.7475 14.7879 93.4932 14.3172 94.3748 14.0057C95.2565 13.6875 96.2309 13.5284 97.2981 13.5284C98.0339 13.5284 98.7664 13.6146 99.4956 13.7869C100.225 13.9593 100.891 14.2443 101.494 14.642C102.097 15.0331 102.581 15.5668 102.946 16.2429C103.317 16.919 103.503 17.7642 103.503 18.7784V29H100.042V26.902H99.9231C99.7044 27.3262 99.3961 27.724 98.9984 28.0952C98.6073 28.4598 98.1135 28.7547 97.5169 28.9801C96.9269 29.1989 96.2342 29.3082 95.4388 29.3082ZM96.3734 26.6634C97.096 26.6634 97.7224 26.5208 98.2527 26.2358C98.783 25.9441 99.1907 25.5597 99.4757 25.0824C99.7674 24.6051 99.9132 24.0848 99.9132 23.5213V21.7216C99.8005 21.8144 99.6083 21.9006 99.3365 21.9801C99.0713 22.0597 98.773 22.1293 98.4416 22.1889C98.1102 22.2486 97.782 22.3016 97.4572 22.348C97.1324 22.3944 96.8507 22.4342 96.6121 22.4673C96.0751 22.5402 95.5945 22.6596 95.1703 22.8253C94.7461 22.991 94.4113 23.223 94.166 23.5213C93.9208 23.813 93.7981 24.1908 93.7981 24.6548C93.7981 25.3177 94.0401 25.8182 94.524 26.1562C95.0079 26.4943 95.6244 26.6634 96.3734 26.6634ZM107.281 29V8.63636H110.881V16.2528H111.03C111.215 15.8816 111.477 15.4872 111.815 15.0696C112.153 14.6454 112.611 14.2841 113.187 13.9858C113.764 13.6809 114.5 13.5284 115.395 13.5284C116.575 13.5284 117.639 13.83 118.586 14.4332C119.541 15.0298 120.297 15.9148 120.854 17.0881C121.417 18.2547 121.699 19.6866 121.699 21.3835C121.699 23.0606 121.424 24.4858 120.873 25.6591C120.323 26.8324 119.574 27.7273 118.626 28.3438C117.678 28.9602 116.604 29.2685 115.405 29.2685C114.53 29.2685 113.804 29.1226 113.227 28.831C112.65 28.5393 112.186 28.188 111.835 27.777C111.49 27.3594 111.222 26.965 111.03 26.5938H110.821V29H107.281ZM110.811 21.3636C110.811 22.3513 110.95 23.2164 111.229 23.9588C111.514 24.7012 111.921 25.2812 112.452 25.6989C112.988 26.1098 113.638 26.3153 114.4 26.3153C115.196 26.3153 115.862 26.1032 116.399 25.679C116.936 25.2481 117.34 24.6615 117.612 23.919C117.89 23.17 118.03 22.3182 118.03 21.3636C118.03 20.4157 117.894 19.5739 117.622 18.8381C117.35 18.1023 116.946 17.5256 116.409 17.108C115.872 16.6903 115.202 16.4815 114.4 16.4815C113.631 16.4815 112.979 16.6837 112.442 17.0881C111.905 17.4924 111.497 18.0592 111.219 18.7884C110.947 19.5175 110.811 20.3759 110.811 21.3636ZM131.421 29.2983C129.929 29.2983 128.637 28.9702 127.543 28.3139C126.449 27.6577 125.601 26.7396 124.997 25.5597C124.401 24.3797 124.102 23.0009 124.102 21.4233C124.102 19.8456 124.401 18.4635 124.997 17.277C125.601 16.0904 126.449 15.169 127.543 14.5128C128.637 13.8565 129.929 13.5284 131.421 13.5284C132.912 13.5284 134.205 13.8565 135.298 14.5128C136.392 15.169 137.237 16.0904 137.834 17.277C138.437 18.4635 138.739 19.8456 138.739 21.4233C138.739 23.0009 138.437 24.3797 137.834 25.5597C137.237 26.7396 136.392 27.6577 135.298 28.3139C134.205 28.9702 132.912 29.2983 131.421 29.2983ZM131.441 26.4148C132.249 26.4148 132.925 26.1927 133.469 25.7486C134.013 25.2978 134.417 24.6946 134.682 23.9389C134.954 23.1832 135.09 22.3414 135.09 21.4134C135.09 20.4787 134.954 19.6335 134.682 18.8778C134.417 18.1155 134.013 17.509 133.469 17.0582C132.925 16.6075 132.249 16.3821 131.441 16.3821C130.612 16.3821 129.923 16.6075 129.372 17.0582C128.829 17.509 128.421 18.1155 128.149 18.8778C127.884 19.6335 127.752 20.4787 127.752 21.4134C127.752 22.3414 127.884 23.1832 128.149 23.9389C128.421 24.6946 128.829 25.2978 129.372 25.7486C129.923 26.1927 130.612 26.4148 131.441 26.4148ZM148.456 29.2983C146.964 29.2983 145.672 28.9702 144.578 28.3139C143.484 27.6577 142.636 26.7396 142.033 25.5597C141.436 24.3797 141.138 23.0009 141.138 21.4233C141.138 19.8456 141.436 18.4635 142.033 17.277C142.636 16.0904 143.484 15.169 144.578 14.5128C145.672 13.8565 146.964 13.5284 148.456 13.5284C149.947 13.5284 151.24 13.8565 152.334 14.5128C153.427 15.169 154.273 16.0904 154.869 17.277C155.472 18.4635 155.774 19.8456 155.774 21.4233C155.774 23.0009 155.472 24.3797 154.869 25.5597C154.273 26.7396 153.427 27.6577 152.334 28.3139C151.24 28.9702 149.947 29.2983 148.456 29.2983ZM148.476 26.4148C149.284 26.4148 149.961 26.1927 150.504 25.7486C151.048 25.2978 151.452 24.6946 151.717 23.9389C151.989 23.1832 152.125 22.3414 152.125 21.4134C152.125 20.4787 151.989 19.6335 151.717 18.8778C151.452 18.1155 151.048 17.509 150.504 17.0582C149.961 16.6075 149.284 16.3821 148.476 16.3821C147.647 16.3821 146.958 16.6075 146.408 17.0582C145.864 17.509 145.456 18.1155 145.184 18.8778C144.919 19.6335 144.787 20.4787 144.787 21.4134C144.787 22.3414 144.919 23.1832 145.184 23.9389C145.456 24.6946 145.864 25.2978 146.408 25.7486C146.958 26.1927 147.647 26.4148 148.476 26.4148ZM162.11 24.2074L162.1 19.8622H162.677L168.166 13.7273H172.372L165.62 21.2443H164.874L162.11 24.2074ZM158.829 29V8.63636H162.428V29H158.829ZM168.414 29L163.443 22.0497L165.869 19.5142L172.72 29H168.414Z" fill="white"/>
</g>
<defs>
<linearGradient id="paint0_linear_27_9" x1="15.1754" y1="3" x2="15.1754" y2="33" gradientUnits="userSpaceOnUse">
<stop stop-color="#877EFF"/>
<stop offset="0.461458" stop-color="#685DFF"/>
<stop offset="1" stop-color="#3121FF"/>
</linearGradient>
<clipPath id="clip0_27_9">
<rect width="173" height="36" fill="white"/>
</clipPath>
</defs>
</svg>
